<svg xmlns="http://www.w3.org/2000/svg" width="103.043" height="122.715" viewBox="0 0 27.263 32.468"><path fill="#2196f3" d="M-2.301-3.086H31.22v38.293H-2.301z"/><path overflow="visible" display="block" color="#000" style="marker:none" d="M6.508 7.172c-2.145-1.024-5.3.198-4.553 2.955.727 2.686 3.869 2.097 4.955.461-.453 3.101-1.25 3.584-1.726 4.257h5.065c-.513-.72-1.445-1.156-1.992-4.299 1.095 1.633 4.386 2.199 5.103-.45.705-2.604-2.474-4.087-4.588-2.908 2.027-1.361 2.755-5.832-1.084-5.832-3.878 0-3.23 4.558-1.18 5.816z" fill="#58b0f6"/><path fill-rule="evenodd" d="M16.541 22.268c-4.452 4.549-.087 7.848 3.433 5.677-.665 2.37-1.03 2.556-1.434 3.18h3.8c-.487-.63-1-.81-1.519-3.167 3.594 2.065 7.382-1.536 3.394-5.69-2.608-2.28-3.62-4.364-3.837-4.66-.207.247-1.43 2.421-3.837 4.66z" fill="#58b0f6"/><path fill="#58b0f6" d="M7.577 31.104a4.544 4.544 0 01-.12-.362c-.337-1.12-.963-2.254-2.012-3.644-.394-.522-.765-.984-1.769-2.204-1.161-1.412-1.494-1.864-1.83-2.488a5.281 5.281 0 01-.472-1.286c-.067-.357-.068-.94-.002-1.243.27-1.235 1.367-2.166 2.678-2.275 1.502-.124 2.78.635 3.452 2.05l.15.316.112-.25c.168-.37.33-.621.602-.934.694-.797 1.52-1.188 2.515-1.19.445 0 .7.037 1.08.157.569.18.996.46 1.377.902.992 1.15.875 2.718-.348 4.638-.285.448-.8 1.11-1.507 1.941-.815.957-1.213 1.443-1.62 1.98-.978 1.285-1.635 2.452-1.996 3.546a3.203 3.203 0 01-.129.345c-.036.054-.131.055-.16.001z"/><path fill-rule="evenodd" fill="#58b0f6" d="M20.36 1.323c-1.411 2.349-3 4.608-4.614 6.778 1.69 2.17 3.304 4.429 4.614 6.777 1.36-2.393 2.848-4.675 4.614-6.777a57.555 57.555 0 01-4.614-6.778z"/></svg>